ply
format ascii 1.0
comment Created by Blender 2.80 (sub 39) - www.blender.org, source file: 'Tree Collection.blend'
element vertex 160
property float x
property float y
property float z
property float nx
property float ny
property float nz
property float s
property float t
element face 54
property list uchar uint vertex_indices
end_header
-7.851286 12.197391 0.376997 -0.000001 -0.995802 0.091536 0.972175 0.330566
-7.843276 12.197391 0.376997 -0.000001 -0.995802 0.091536 0.944131 0.330705
-7.858294 12.216693 0.586984 -0.000001 -0.995802 0.091536 0.988594 0.000057
-7.851286 12.197391 0.376997 0.000000 -0.995802 0.091536 0.972175 0.330566
-7.858294 12.216693 0.586984 0.000000 -0.995802 0.091536 0.988594 0.000057
-7.861552 12.216693 0.586984 0.000000 -0.995802 0.091536 1.000000 0.000000
-7.843276 12.197391 0.376997 -0.000000 -0.999918 0.012781 0.944131 0.330705
-7.851286 12.197391 0.376997 -0.000000 -0.999918 0.012781 0.972175 0.330566
-7.846707 12.194517 0.152192 -0.000000 -0.999918 0.012781 0.964830 0.684399
-7.838696 12.194517 0.152192 0.000000 -0.999918 0.012781 0.936786 0.684539
-7.838696 12.194517 0.152192 -0.000001 -0.993939 -0.109931 0.936786 0.684539
-7.846707 12.194517 0.152192 -0.000001 -0.993939 -0.109931 0.964830 0.684399
-7.854540 12.216694 -0.048319 -0.000001 -0.993939 -0.109931 1.000000 0.999861
-7.838696 12.194517 0.152192 -0.000000 -0.993939 -0.109931 0.936786 0.684539
-7.854540 12.216694 -0.048319 -0.000000 -0.993939 -0.109931 1.000000 0.999861
-7.846529 12.216694 -0.048319 -0.000000 -0.993939 -0.109931 0.971956 1.000000
-7.884246 12.212579 0.593311 0.280899 -0.481361 0.830293 0.865467 0.375111
-7.861514 12.216143 0.587687 0.280899 -0.481361 0.830293 0.925444 0.426547
-7.860646 12.220242 0.589770 0.280899 -0.481361 0.830293 0.917175 0.437970
-7.884246 12.212579 0.593311 0.238366 -0.308504 0.920873 0.865467 0.375111
-7.860646 12.220242 0.589770 0.238366 -0.308504 0.920873 0.917175 0.437970
-7.884486 12.232132 0.599924 0.238366 -0.308504 0.920873 0.818650 0.423496
-7.916132 12.208111 0.596616 0.516763 -0.230026 0.824648 0.786043 0.306429
-7.917769 12.270378 0.615011 0.516763 -0.230026 0.824648 0.637992 0.460201
-7.956578 12.272694 0.639976 0.516763 -0.230026 0.824648 0.500090 0.387726
-7.916132 12.208111 0.596616 0.594574 -0.157061 0.788552 0.786043 0.306429
-7.956578 12.272694 0.639976 0.594574 -0.157061 0.788552 0.500090 0.387726
-7.956074 12.201018 0.625320 0.594574 -0.157061 0.788552 0.658719 0.205392
-7.903225 12.144691 0.601569 0.553615 0.176236 0.813911 0.936786 0.158682
-7.916132 12.208111 0.596616 0.553615 0.176236 0.813911 0.786043 0.306429
-7.956074 12.201018 0.625320 0.553615 0.176236 0.813911 0.658719 0.205392
-7.903225 12.144691 0.601569 0.563744 0.190003 0.803798 0.936786 0.158682
-7.956074 12.201018 0.625320 0.563744 0.190003 0.803798 0.658719 0.205392
-7.939729 12.129908 0.630666 0.563744 0.190003 0.803798 0.832933 0.043070
-7.879890 12.192534 0.595633 0.048313 0.284650 0.957413 0.912890 0.328554
-7.859717 12.211995 0.588829 0.048313 0.284650 0.957413 0.936786 0.418170
-7.861514 12.216143 0.587687 0.048313 0.284650 0.957413 0.925444 0.426547
-7.879890 12.192534 0.595633 0.213730 0.158113 0.964012 0.912890 0.328554
-7.861514 12.216143 0.587687 0.213730 0.158113 0.964012 0.925444 0.426547
-7.884246 12.212579 0.593311 0.213730 0.158113 0.964012 0.865467 0.375111
-7.956074 12.201018 0.625320 0.714615 -0.135311 0.686307 0.658719 0.205392
-7.956578 12.272694 0.639976 0.714615 -0.135311 0.686307 0.500090 0.387726
-7.977951 12.249061 0.657571 0.714615 -0.135311 0.686307 0.467623 0.280125
-7.956074 12.201018 0.625320 0.800775 -0.036689 0.597840 0.658719 0.205392
-7.977951 12.249061 0.657571 0.800775 -0.036689 0.597840 0.467623 0.280125
-7.975960 12.215055 0.652817 0.800775 -0.036689 0.597840 0.544742 0.195676
-7.939729 12.129908 0.630666 0.741198 0.218093 0.634871 0.832933 0.043070
-7.956074 12.201018 0.625320 0.741198 0.218093 0.634871 0.658719 0.205392
-7.973217 12.182915 0.651553 0.741198 0.218093 0.634871 0.615857 0.115897
-7.939729 12.129908 0.630666 0.650264 0.114894 0.750970 0.832933 0.043070
-7.973217 12.182915 0.651553 0.650264 0.114894 0.750970 0.615857 0.115897
-7.966836 12.145964 0.651681 0.650264 0.114894 0.750970 0.704140 0.029074
-7.903225 12.144691 0.601569 0.011585 0.117542 0.993000 0.936786 0.158682
-7.879890 12.192534 0.595633 0.011585 0.117542 0.993000 0.912890 0.328554
-7.884246 12.212579 0.593311 0.011585 0.117542 0.993000 0.865467 0.375111
-7.903225 12.144691 0.601569 0.089342 0.095609 0.991401 0.936786 0.158682
-7.884246 12.212579 0.593311 0.089342 0.095609 0.991401 0.865467 0.375111
-7.916132 12.208111 0.596616 0.089342 0.095609 0.991401 0.786043 0.306429
-7.916132 12.208111 0.596616 0.141456 -0.315587 0.938294 0.786043 0.306429
-7.884246 12.212579 0.593311 0.141456 -0.315587 0.938294 0.865467 0.375111
-7.884486 12.232132 0.599924 0.141456 -0.315587 0.938294 0.818650 0.423496
-7.916132 12.208111 0.596616 0.111931 -0.278824 0.953797 0.786043 0.306429
-7.884486 12.232132 0.599924 0.111931 -0.278824 0.953797 0.818650 0.423496
-7.917769 12.270378 0.615011 0.111931 -0.278824 0.953797 0.637992 0.460201
-7.851139 12.237280 0.581432 -0.003780 0.150429 0.988614 0.399152 0.377276
-7.860932 12.216577 0.584545 -0.003780 0.150429 0.988614 0.456400 0.429410
-7.857169 12.213830 0.584977 -0.003780 0.150429 0.988614 0.448271 0.440628
-7.851139 12.237280 0.581432 0.206752 0.094065 0.973861 0.399152 0.377276
-7.857169 12.213830 0.584977 0.206752 0.094065 0.973861 0.448271 0.440628
-7.833535 12.226851 0.578702 0.206752 0.094065 0.973861 0.352946 0.425473
-7.839854 12.265061 0.569249 0.148759 -0.086460 0.985087 0.318883 0.310807
-7.785095 12.231974 0.558075 0.148759 -0.086460 0.985087 0.172787 0.464385
-7.753160 12.265308 0.556178 0.148759 -0.086460 0.985087 0.033913 0.392249
-7.839854 12.265061 0.569249 0.146678 -0.197929 0.969180 0.318883 0.310807
-7.753160 12.265308 0.556178 0.146678 -0.197929 0.969180 0.033913 0.392249
-7.811654 12.305779 0.573296 0.146678 -0.197929 0.969180 0.190196 0.209448
-7.885416 12.294992 0.604482 0.407317 -0.365308 0.837044 0.467622 0.159346
-7.839854 12.265061 0.569249 0.407317 -0.365308 0.837044 0.318883 0.310807
-7.811654 12.305779 0.573296 0.407317 -0.365308 0.837044 0.190196 0.209448
-7.885416 12.294992 0.604482 0.406656 -0.383525 0.829180 0.467622 0.159346
-7.811654 12.305779 0.573296 0.406656 -0.383525 0.829180 0.190196 0.209448
-7.863593 12.337867 0.613610 0.406656 -0.383525 0.829180 0.362205 0.042826
-7.865181 12.246682 0.593287 0.748550 -0.085294 0.657569 0.445941 0.329428
-7.863777 12.217973 0.587964 0.748550 -0.085294 0.657569 0.467623 0.420607
-7.860932 12.216577 0.584545 0.748550 -0.085294 0.657569 0.456400 0.429410
-7.865181 12.246682 0.593287 0.576277 -0.151846 0.803024 0.445941 0.329428
-7.860932 12.216577 0.584545 0.576277 -0.151846 0.803024 0.456400 0.429410
-7.851139 12.237280 0.581432 0.576277 -0.151846 0.803024 0.399152 0.377276
-7.811654 12.305779 0.573296 0.052403 -0.323820 0.944666 0.190196 0.209448
-7.753160 12.265308 0.556178 0.052403 -0.323820 0.944666 0.033913 0.392249
-7.750339 12.299685 0.567806 0.052403 -0.323820 0.944666 0.000000 0.283579
-7.811654 12.305779 0.573296 0.032561 -0.468013 0.883122 0.190196 0.209448
-7.750339 12.299685 0.567806 0.032561 -0.468013 0.883122 0.000000 0.283579
-7.777416 12.317994 0.578507 0.032561 -0.468013 0.883122 0.076020 0.198484
-7.863593 12.337867 0.613610 0.253573 -0.570762 0.780981 0.362205 0.042826
-7.811654 12.305779 0.573296 0.253573 -0.570762 0.780981 0.190196 0.209448
-7.801357 12.335299 0.591527 0.253573 -0.570762 0.780981 0.146080 0.117620
-7.863593 12.337867 0.613610 0.289094 -0.414479 0.862920 0.362205 0.042826
-7.801357 12.335299 0.591527 0.289094 -0.414479 0.862920 0.146080 0.117620
-7.829158 12.353048 0.609366 0.289094 -0.414479 0.862920 0.233201 0.029074
-7.885416 12.294992 0.604482 0.686535 0.121430 0.716885 0.467622 0.159346
-7.865181 12.246682 0.593287 0.686535 0.121430 0.716885 0.445941 0.329428
-7.851139 12.237280 0.581432 0.686535 0.121430 0.716885 0.399152 0.377276
-7.885416 12.294992 0.604482 0.640408 0.075073 0.764357 0.467622 0.159346
-7.851139 12.237280 0.581432 0.640408 0.075073 0.764357 0.399152 0.377276
-7.839854 12.265061 0.569249 0.640408 0.075073 0.764357 0.318883 0.310807
-7.839854 12.265061 0.569249 0.304838 0.275935 0.911556 0.318883 0.310807
-7.851139 12.237280 0.581432 0.304838 0.275935 0.911556 0.399152 0.377276
-7.833535 12.226851 0.578702 0.304838 0.275935 0.911556 0.352946 0.425473
-7.839854 12.265061 0.569249 0.351057 0.279177 0.893767 0.318883 0.310807
-7.833535 12.226851 0.578702 0.351057 0.279177 0.893767 0.352946 0.425473
-7.785095 12.231974 0.558075 0.351057 0.279177 0.893767 0.172787 0.464385
-7.850134 12.196861 0.578276 0.441005 -0.173641 0.880547 0.862534 0.808387
-7.860914 12.215866 0.587423 0.441005 -0.173641 0.880547 0.922894 0.859591
-7.863738 12.213922 0.588454 0.441005 -0.173641 0.880547 0.914670 0.868227
-7.850134 12.196861 0.578276 0.592087 -0.008591 0.805828 0.862534 0.808387
-7.863738 12.213922 0.588454 0.592087 -0.008591 0.805828 0.914670 0.868227
-7.864079 12.185499 0.588401 0.592087 -0.008591 0.805828 0.816339 0.856420
-7.837509 12.171918 0.561963 0.447511 0.161438 0.879586 0.782019 0.740358
-7.882904 12.136168 0.591621 0.447511 0.161438 0.879586 0.635587 0.893221
-7.864951 12.093617 0.590296 0.447511 0.161438 0.879586 0.498806 0.820100
-7.837509 12.171918 0.561963 0.350479 0.207631 0.913266 0.782019 0.740358
-7.864951 12.093617 0.590296 0.350479 0.207631 0.913266 0.498806 0.820100
-7.809485 12.130903 0.560534 0.350479 0.207631 0.913266 0.656288 0.638388
-7.783319 12.207262 0.556718 0.082381 0.021554 0.996368 0.934493 0.591534
-7.837509 12.171918 0.561963 0.082381 0.021554 0.996368 0.782019 0.740358
-7.809485 12.130903 0.560534 0.082381 0.021554 0.996368 0.656288 0.638388
-7.783319 12.207262 0.556718 0.063652 0.028032 0.997578 0.934493 0.591534
-7.809485 12.130903 0.560534 0.063652 0.028032 0.997578 0.656288 0.638388
-7.749244 12.172115 0.555532 0.063652 0.028032 0.997578 0.832508 0.474821
-7.832734 12.207932 0.577369 0.167685 -0.489037 0.855993 0.910609 0.761429
-7.857224 12.218591 0.588257 0.167685 -0.489037 0.855993 0.934493 0.851059
-7.860914 12.215866 0.587423 0.167685 -0.489037 0.855993 0.922894 0.859591
-7.832734 12.207932 0.577369 0.242433 -0.305637 0.920767 0.910609 0.761429
-7.860914 12.215866 0.587423 0.242433 -0.305637 0.920767 0.922894 0.859591
-7.850134 12.196861 0.578276 0.242433 -0.305637 0.920767 0.862534 0.808387
-7.809485 12.130903 0.560534 0.258791 0.337475 0.905062 0.656288 0.638388
-7.864951 12.093617 0.590296 0.258791 0.337475 0.905062 0.498806 0.820100
-7.831778 12.079211 0.586183 0.258791 0.337475 0.905062 0.467623 0.711731
-7.809485 12.130903 0.560534 0.114374 0.401545 0.908669 0.656288 0.638388
-7.831778 12.079211 0.586183 0.114374 0.401545 0.908669 0.467623 0.711731
-7.804887 12.097367 0.574775 0.114374 0.401545 0.908669 0.544545 0.627371
-7.749244 12.172115 0.555532 -0.076274 0.229265 0.970371 0.832508 0.474821
-7.809485 12.130903 0.560534 -0.076274 0.229265 0.970371 0.656288 0.638388
-7.778232 12.113846 0.567020 -0.076274 0.229265 0.970371 0.615903 0.547422
-7.749244 12.172115 0.555532 0.085475 0.151631 0.984734 0.832508 0.474821
-7.778232 12.113846 0.567020 0.085475 0.151631 0.984734 0.615903 0.547422
-7.747623 12.134699 0.561153 0.085475 0.151631 0.984734 0.704810 0.460201
-7.783319 12.207262 0.556718 0.336652 -0.461935 0.820537 0.934493 0.591534
-7.832734 12.207932 0.577369 0.336652 -0.461935 0.820537 0.910609 0.761429
-7.850134 12.196861 0.578276 0.336652 -0.461935 0.820537 0.862534 0.808387
-7.783319 12.207262 0.556718 0.337173 -0.389782 0.856962 0.934493 0.591534
-7.850134 12.196861 0.578276 0.337173 -0.389782 0.856962 0.862534 0.808387
-7.837509 12.171918 0.561963 0.337173 -0.389782 0.856962 0.782019 0.740358
-7.837509 12.171918 0.561963 0.657884 -0.149717 0.738088 0.782019 0.740358
-7.850134 12.196861 0.578276 0.657884 -0.149717 0.738088 0.862534 0.808387
-7.864079 12.185499 0.588401 0.657884 -0.149717 0.738088 0.816339 0.856420
-7.837509 12.171918 0.561963 0.639670 -0.195589 0.743348 0.782019 0.740358
-7.864079 12.185499 0.588401 0.639670 -0.195589 0.743348 0.816339 0.856420
-7.882904 12.136168 0.591621 0.639670 -0.195589 0.743348 0.635587 0.893221
3 0 1 2
3 3 4 5
3 6 7 8
3 6 8 9
3 10 11 12
3 13 14 15
3 16 17 18
3 19 20 21
3 22 23 24
3 25 26 27
3 28 29 30
3 31 32 33
3 34 35 36
3 37 38 39
3 40 41 42
3 43 44 45
3 46 47 48
3 49 50 51
3 52 53 54
3 55 56 57
3 58 59 60
3 61 62 63
3 64 65 66
3 67 68 69
3 70 71 72
3 73 74 75
3 76 77 78
3 79 80 81
3 82 83 84
3 85 86 87
3 88 89 90
3 91 92 93
3 94 95 96
3 97 98 99
3 100 101 102
3 103 104 105
3 106 107 108
3 109 110 111
3 112 113 114
3 115 116 117
3 118 119 120
3 121 122 123
3 124 125 126
3 127 128 129
3 130 131 132
3 133 134 135
3 136 137 138
3 139 140 141
3 142 143 144
3 145 146 147
3 148 149 150
3 151 152 153
3 154 155 156
3 157 158 159
